<mxfile host="app.diagrams.net" agent="Mozilla/5.0 (X11; Linux x86_64; rv:128.0) Gecko/20100101 Firefox/128.0" modified="2025-01-05T16:12:41.383Z" version="24.2.3" etag="KGuh8QrvZR8gSATQxFaA" type="device">
  <diagram name="Page-1" id="pbdlIW31I9k4wc9ICS-l">
    <mxGraphModel dx="2049" dy="1173" grid="1" gridSize="10" guides="1" tooltips="1" connect="1" arrows="1" fold="1" page="1" pageScale="1" pageWidth="827" pageHeight="1169" math="0" shadow="0">
      <root>
        <mxCell id="0" />
        <mxCell id="1" parent="0" />
        <mxCell id="N-RC_e_7AddYf7M07eD2-27" value="" style="rounded=1;whiteSpace=wrap;html=1;fillColor=#e1d5e7;strokeColor=#9673a6;" parent="1" vertex="1">
          <mxGeometry x="20" y="510" width="250" height="200" as="geometry" />
        </mxCell>
        <mxCell id="N-RC_e_7AddYf7M07eD2-5" style="edgeStyle=orthogonalEdgeStyle;rounded=0;orthogonalLoop=1;jettySize=auto;html=1;entryX=0;entryY=0.5;entryDx=0;entryDy=0;" parent="1" source="N-RC_e_7AddYf7M07eD2-1" target="N-RC_e_7AddYf7M07eD2-2" edge="1">
          <mxGeometry relative="1" as="geometry" />
        </mxCell>
        <mxCell id="N-RC_e_7AddYf7M07eD2-8" style="edgeStyle=orthogonalEdgeStyle;rounded=0;orthogonalLoop=1;jettySize=auto;html=1;exitX=0.5;exitY=1;exitDx=0;exitDy=0;entryX=0.5;entryY=0;entryDx=0;entryDy=0;" parent="1" source="N-RC_e_7AddYf7M07eD2-1" target="N-RC_e_7AddYf7M07eD2-7" edge="1">
          <mxGeometry relative="1" as="geometry" />
        </mxCell>
        <mxCell id="N-RC_e_7AddYf7M07eD2-1" value="&lt;b&gt;AlgoNetAPI&lt;/b&gt;" style="rounded=1;whiteSpace=wrap;html=1;fillColor=#d5e8d4;strokeColor=#82b366;" parent="1" vertex="1">
          <mxGeometry x="200" y="240" width="130" height="60" as="geometry" />
        </mxCell>
        <mxCell id="N-RC_e_7AddYf7M07eD2-14" style="edgeStyle=orthogonalEdgeStyle;rounded=0;orthogonalLoop=1;jettySize=auto;html=1;exitX=0.5;exitY=1;exitDx=0;exitDy=0;entryX=0.5;entryY=0;entryDx=0;entryDy=0;" parent="1" source="N-RC_e_7AddYf7M07eD2-2" target="N-RC_e_7AddYf7M07eD2-4" edge="1">
          <mxGeometry relative="1" as="geometry" />
        </mxCell>
        <mxCell id="N-RC_e_7AddYf7M07eD2-2" value="&lt;b&gt;Database&lt;/b&gt;&lt;div&gt;id&lt;/div&gt;&lt;div&gt;code&lt;/div&gt;&lt;div&gt;result (initially -1)&lt;/div&gt;" style="rounded=1;whiteSpace=wrap;html=1;fillColor=#ffe6cc;strokeColor=#d79b00;" parent="1" vertex="1">
          <mxGeometry x="500" y="220" width="120" height="100" as="geometry" />
        </mxCell>
        <mxCell id="N-RC_e_7AddYf7M07eD2-16" style="edgeStyle=orthogonalEdgeStyle;rounded=0;orthogonalLoop=1;jettySize=auto;html=1;entryX=1;entryY=0.5;entryDx=0;entryDy=0;" parent="1" source="N-RC_e_7AddYf7M07eD2-4" target="N-RC_e_7AddYf7M07eD2-2" edge="1">
          <mxGeometry relative="1" as="geometry">
            <Array as="points">
              <mxPoint x="720" y="430" />
              <mxPoint x="720" y="270" />
            </Array>
          </mxGeometry>
        </mxCell>
        <mxCell id="N-RC_e_7AddYf7M07eD2-4" value="grader" style="rounded=1;whiteSpace=wrap;html=1;fillColor=#e1d5e7;strokeColor=#9673a6;" parent="1" vertex="1">
          <mxGeometry x="500" y="400" width="120" height="60" as="geometry" />
        </mxCell>
        <mxCell id="N-RC_e_7AddYf7M07eD2-6" value="&lt;font style=&quot;font-size: 12px; font-weight: normal;&quot;&gt;inserts id + code&lt;/font&gt;" style="text;strokeColor=none;fillColor=none;html=1;fontSize=24;fontStyle=1;verticalAlign=middle;align=center;" parent="1" vertex="1">
          <mxGeometry x="330" y="230" width="100" height="40" as="geometry" />
        </mxCell>
        <mxCell id="N-RC_e_7AddYf7M07eD2-10" style="edgeStyle=orthogonalEdgeStyle;rounded=0;orthogonalLoop=1;jettySize=auto;html=1;exitX=1;exitY=0.5;exitDx=0;exitDy=0;entryX=0;entryY=0.5;entryDx=0;entryDy=0;" parent="1" source="N-RC_e_7AddYf7M07eD2-7" target="N-RC_e_7AddYf7M07eD2-4" edge="1">
          <mxGeometry relative="1" as="geometry" />
        </mxCell>
        <mxCell id="N-RC_e_7AddYf7M07eD2-7" value="&lt;b&gt;queue&amp;lt;Id&amp;gt;&lt;/b&gt;&lt;div&gt;&lt;div&gt;(inside grader)&lt;/div&gt;&lt;/div&gt;" style="rounded=1;whiteSpace=wrap;html=1;fillColor=#dae8fc;strokeColor=#6c8ebf;" parent="1" vertex="1">
          <mxGeometry x="205" y="400" width="120" height="60" as="geometry" />
        </mxCell>
        <mxCell id="N-RC_e_7AddYf7M07eD2-9" value="&lt;span style=&quot;font-weight: normal;&quot;&gt;&lt;font style=&quot;font-size: 12px;&quot;&gt;inserts id&lt;/font&gt;&lt;/span&gt;" style="text;strokeColor=none;fillColor=none;html=1;fontSize=24;fontStyle=1;verticalAlign=middle;align=center;" parent="1" vertex="1">
          <mxGeometry x="250" y="290" width="100" height="40" as="geometry" />
        </mxCell>
        <mxCell id="N-RC_e_7AddYf7M07eD2-11" value="&lt;span style=&quot;font-weight: normal;&quot;&gt;&lt;font style=&quot;font-size: 12px;&quot;&gt;pops id&lt;/font&gt;&lt;/span&gt;" style="text;strokeColor=none;fillColor=none;html=1;fontSize=24;fontStyle=1;verticalAlign=middle;align=center;" parent="1" vertex="1">
          <mxGeometry x="350" y="390" width="100" height="40" as="geometry" />
        </mxCell>
        <mxCell id="N-RC_e_7AddYf7M07eD2-15" value="&lt;p style=&quot;line-height: 40%;&quot;&gt;&lt;font style=&quot;font-weight: normal; font-size: 12px;&quot;&gt;reads code of *id*&lt;/font&gt;&lt;font style=&quot;font-size: 12px;&quot;&gt;&lt;span style=&quot;font-weight: normal;&quot;&gt;&lt;br&gt;and the tests&lt;/span&gt;&lt;/font&gt;&lt;br&gt;&lt;/p&gt;" style="text;strokeColor=none;fillColor=none;html=1;fontSize=24;fontStyle=1;verticalAlign=middle;align=center;" parent="1" vertex="1">
          <mxGeometry x="560" y="320" width="100" height="40" as="geometry" />
        </mxCell>
        <mxCell id="N-RC_e_7AddYf7M07eD2-17" value="&lt;span style=&quot;font-weight: normal;&quot;&gt;&lt;font style=&quot;font-size: 12px;&quot;&gt;updates result&lt;/font&gt;&lt;/span&gt;" style="text;strokeColor=none;fillColor=none;html=1;fontSize=24;fontStyle=1;verticalAlign=middle;align=center;" parent="1" vertex="1">
          <mxGeometry x="610" y="390" width="100" height="40" as="geometry" />
        </mxCell>
        <mxCell id="N-RC_e_7AddYf7M07eD2-23" value="&lt;b&gt;&lt;font style=&quot;font-size: 24px;&quot;&gt;Grader workflow&lt;/font&gt;&lt;/b&gt;" style="text;html=1;align=center;verticalAlign=middle;whiteSpace=wrap;rounded=0;" parent="1" vertex="1">
          <mxGeometry x="32.5" y="520" width="215" height="50" as="geometry" />
        </mxCell>
        <mxCell id="N-RC_e_7AddYf7M07eD2-25" value="&lt;ul&gt;&lt;li&gt;gets id to evaluate from queue&lt;/li&gt;&lt;li&gt;reads code of the id from database&lt;/li&gt;&lt;li&gt;compiles&amp;nbsp;&lt;/li&gt;&lt;li&gt;runs the program on every input, checking the output&lt;br&gt;&lt;/li&gt;&lt;li&gt;deletes compiled program&lt;/li&gt;&lt;li&gt;updates database result&lt;/li&gt;&lt;/ul&gt;" style="text;strokeColor=none;fillColor=none;html=1;whiteSpace=wrap;verticalAlign=middle;overflow=hidden;" parent="1" vertex="1">
          <mxGeometry x="22.5" y="570" width="235" height="120" as="geometry" />
        </mxCell>
        <mxCell id="rTK-PJxexogqh64CPI-t-3" style="edgeStyle=orthogonalEdgeStyle;rounded=0;orthogonalLoop=1;jettySize=auto;html=1;entryX=0.5;entryY=0;entryDx=0;entryDy=0;" edge="1" parent="1" source="rTK-PJxexogqh64CPI-t-1" target="rTK-PJxexogqh64CPI-t-2">
          <mxGeometry relative="1" as="geometry" />
        </mxCell>
        <mxCell id="rTK-PJxexogqh64CPI-t-1" value="Listen for HTTP requests" style="rounded=1;whiteSpace=wrap;html=1;" vertex="1" parent="1">
          <mxGeometry x="490" y="510" width="120" height="60" as="geometry" />
        </mxCell>
        <mxCell id="rTK-PJxexogqh64CPI-t-5" style="edgeStyle=orthogonalEdgeStyle;rounded=0;orthogonalLoop=1;jettySize=auto;html=1;entryX=0.5;entryY=0;entryDx=0;entryDy=0;" edge="1" parent="1" source="rTK-PJxexogqh64CPI-t-2" target="rTK-PJxexogqh64CPI-t-4">
          <mxGeometry relative="1" as="geometry" />
        </mxCell>
        <mxCell id="rTK-PJxexogqh64CPI-t-2" value="Queue" style="rounded=1;whiteSpace=wrap;html=1;" vertex="1" parent="1">
          <mxGeometry x="490" y="630" width="120" height="60" as="geometry" />
        </mxCell>
        <mxCell id="rTK-PJxexogqh64CPI-t-6" style="edgeStyle=orthogonalEdgeStyle;rounded=0;orthogonalLoop=1;jettySize=auto;html=1;exitX=0.5;exitY=1;exitDx=0;exitDy=0;" edge="1" parent="1" source="rTK-PJxexogqh64CPI-t-4">
          <mxGeometry relative="1" as="geometry">
            <mxPoint x="350" y="840" as="targetPoint" />
          </mxGeometry>
        </mxCell>
        <mxCell id="rTK-PJxexogqh64CPI-t-10" style="edgeStyle=orthogonalEdgeStyle;rounded=0;orthogonalLoop=1;jettySize=auto;html=1;" edge="1" parent="1" source="rTK-PJxexogqh64CPI-t-4" target="rTK-PJxexogqh64CPI-t-8">
          <mxGeometry relative="1" as="geometry" />
        </mxCell>
        <mxCell id="rTK-PJxexogqh64CPI-t-15" style="edgeStyle=orthogonalEdgeStyle;rounded=0;orthogonalLoop=1;jettySize=auto;html=1;exitX=0.5;exitY=1;exitDx=0;exitDy=0;" edge="1" parent="1" source="rTK-PJxexogqh64CPI-t-4" target="rTK-PJxexogqh64CPI-t-9">
          <mxGeometry relative="1" as="geometry" />
        </mxCell>
        <mxCell id="rTK-PJxexogqh64CPI-t-4" value="Pop from the queue" style="rounded=1;whiteSpace=wrap;html=1;" vertex="1" parent="1">
          <mxGeometry x="490" y="740" width="120" height="60" as="geometry" />
        </mxCell>
        <mxCell id="rTK-PJxexogqh64CPI-t-13" style="edgeStyle=orthogonalEdgeStyle;rounded=0;orthogonalLoop=1;jettySize=auto;html=1;exitX=0.5;exitY=1;exitDx=0;exitDy=0;" edge="1" parent="1" source="rTK-PJxexogqh64CPI-t-7" target="rTK-PJxexogqh64CPI-t-12">
          <mxGeometry relative="1" as="geometry" />
        </mxCell>
        <mxCell id="rTK-PJxexogqh64CPI-t-7" value="runs test 1" style="rounded=1;whiteSpace=wrap;html=1;" vertex="1" parent="1">
          <mxGeometry x="290" y="840" width="120" height="60" as="geometry" />
        </mxCell>
        <mxCell id="rTK-PJxexogqh64CPI-t-14" style="edgeStyle=orthogonalEdgeStyle;rounded=0;orthogonalLoop=1;jettySize=auto;html=1;" edge="1" parent="1" source="rTK-PJxexogqh64CPI-t-8">
          <mxGeometry relative="1" as="geometry">
            <mxPoint x="559.9999999999998" y="979.9999999999998" as="targetPoint" />
          </mxGeometry>
        </mxCell>
        <mxCell id="rTK-PJxexogqh64CPI-t-8" value="runs test 2" style="rounded=1;whiteSpace=wrap;html=1;" vertex="1" parent="1">
          <mxGeometry x="450" y="840" width="120" height="60" as="geometry" />
        </mxCell>
        <mxCell id="rTK-PJxexogqh64CPI-t-16" style="edgeStyle=orthogonalEdgeStyle;rounded=0;orthogonalLoop=1;jettySize=auto;html=1;entryX=0.5;entryY=0;entryDx=0;entryDy=0;exitX=0.5;exitY=1;exitDx=0;exitDy=0;" edge="1" parent="1" source="rTK-PJxexogqh64CPI-t-9" target="rTK-PJxexogqh64CPI-t-12">
          <mxGeometry relative="1" as="geometry" />
        </mxCell>
        <mxCell id="rTK-PJxexogqh64CPI-t-9" value="runs test N" style="rounded=1;whiteSpace=wrap;html=1;" vertex="1" parent="1">
          <mxGeometry x="690" y="840" width="120" height="60" as="geometry" />
        </mxCell>
        <mxCell id="rTK-PJxexogqh64CPI-t-11" value="&lt;font style=&quot;font-size: 24px;&quot;&gt;&lt;b&gt;. . .&lt;/b&gt;&lt;/font&gt;" style="text;html=1;align=center;verticalAlign=middle;whiteSpace=wrap;rounded=0;" vertex="1" parent="1">
          <mxGeometry x="600" y="850" width="60" height="30" as="geometry" />
        </mxCell>
        <mxCell id="rTK-PJxexogqh64CPI-t-18" style="edgeStyle=orthogonalEdgeStyle;rounded=0;orthogonalLoop=1;jettySize=auto;html=1;" edge="1" parent="1" source="rTK-PJxexogqh64CPI-t-12" target="rTK-PJxexogqh64CPI-t-17">
          <mxGeometry relative="1" as="geometry" />
        </mxCell>
        <mxCell id="rTK-PJxexogqh64CPI-t-12" value="Joins threads &amp;amp; calculates the result" style="rounded=1;whiteSpace=wrap;html=1;" vertex="1" parent="1">
          <mxGeometry x="500" y="980" width="120" height="60" as="geometry" />
        </mxCell>
        <mxCell id="rTK-PJxexogqh64CPI-t-17" value="Updates the database" style="rounded=1;whiteSpace=wrap;html=1;" vertex="1" parent="1">
          <mxGeometry x="500" y="1070" width="120" height="60" as="geometry" />
        </mxCell>
      </root>
    </mxGraphModel>
  </diagram>
</mxfile>
